<svg xmlns="http://www.w3.org/2000/svg" xmlns:xlink="http://www.w3.org/1999/xlink" contentStyleType="text/css" data-diagram-type="CLASS" height="1348px" preserveAspectRatio="none" style="width:1351px;height:1348px;background:#FFFFFF;" version="1.1" viewBox="0 0 1351 1348" width="1351px" zoomAndPan="magnify"><title>CS207 Cryptogram Project - Class Diagram - Group 25 2026</title><defs/><g><g class="title" data-source-line="1"><text fill="#000000" font-family="sans-serif" font-size="14" font-weight="bold" lengthAdjust="spacing" textLength="402.7364" x="467.48" y="24.9659">CS207 Cryptogram Project - Class Diagram - Group 25 2026</text></g><!--class Game--><g class="entity" data-entity="Game" data-source-line="2" data-uid="ent0002" id="entity_Game"><rect fill="#F1F1F1" height="143.3396" rx="2.5" ry="2.5" style="stroke:#181818;stroke-width:0.5;" width="240.4092" x="692.07" y="124.9769"/><ellipse cx="788.5087" cy="140.9769" fill="#ADD1B2" rx="11" ry="11" style="stroke:#181818;stroke-width:1;"/><path d="M787.9774,147.8988 Q786.2274,147.8988 785.0868,147.1644 Q783.9618,146.4144 783.3993,145.0707 Q782.8524,143.7113 782.8524,141.9144 Q782.8524,139.8832 783.5087,138.43 Q784.1649,136.9769 785.4462,136.1957 Q786.7274,135.4144 788.6024,135.4144 Q789.4931,135.4144 790.1649,135.6019 Q790.8368,135.7738 791.5243,136.1175 L790.7118,138.1332 Q790.0868,137.8207 789.5399,137.6957 Q789.0087,137.5707 788.5243,137.5707 Q787.3524,137.5707 786.6493,138.1019 Q785.9462,138.6332 785.6493,139.5863 Q785.3524,140.5394 785.3524,141.805 Q785.3524,143.8207 786.0712,144.7894 Q786.7899,145.7425 788.3837,145.7425 Q788.9774,145.7425 789.6024,145.5863 Q790.2274,145.43 791.0556,145.055 L791.0556,147.2738 Q790.3212,147.5863 789.5243,147.7425 Q788.7431,147.8988 787.9774,147.8988 Z " fill="#000000"/><text fill="#000000" font-family="sans-serif" font-size="14" lengthAdjust="spacing" textLength="39.0318" x="809.0087" y="146.4089">Game</text><line style="stroke:#181818;stroke-width:0.5;" x1="693.07" x2="931.4792" y1="156.9769" y2="156.9769"/><rect fill="none" height="6" style="stroke:#C82930;stroke-width:1;" width="6" x="700.07" y="169.0109"/><text fill="#000000" font-family="sans-serif" font-size="14" lengthAdjust="spacing" textLength="141.4555" x="712.07" y="175.9429">appData: AppData [1]</text><rect fill="none" height="6" style="stroke:#C82930;stroke-width:1;" width="6" x="700.07" y="188.0788"/><text fill="#000000" font-family="sans-serif" font-size="14" lengthAdjust="spacing" textLength="214.4092" x="712.07" y="195.0108">currentCryptogram: Cryptogram</text><line style="stroke:#181818;stroke-width:0.5;" x1="693.07" x2="931.4792" y1="203.1128" y2="203.1128"/><ellipse cx="703.07" cy="218.1467" fill="#84BE84" rx="3" ry="3" style="stroke:#038048;stroke-width:1;"/><text fill="#000000" font-family="sans-serif" font-size="14" font-weight="bold" lengthAdjust="spacing" textLength="177.2533" x="712.07" y="222.0787">Game(appData: AppData)</text><ellipse cx="703.07" cy="237.2146" fill="#84BE84" rx="3" ry="3" style="stroke:#038048;stroke-width:1;"/><text fill="#000000" font-family="sans-serif" font-size="14" lengthAdjust="spacing" textLength="79.3937" x="712.07" y="241.1466">enterInput()</text><ellipse cx="703.07" cy="256.2825" fill="#84BE84" rx="3" ry="3" style="stroke:#038048;stroke-width:1;"/><text fill="#000000" font-family="sans-serif" font-size="14" lengthAdjust="spacing" textLength="161.0274" x="712.07" y="260.2145">checkSolution(): boolean</text></g><path d="M967.86,105.8269 L967.86,142.239 L926.4792,189.5788 L967.86,150.239 L967.86,186.651 A0,0 0 0 0 967.86,186.651 L1216.8413,186.651 A0,0 0 0 0 1216.8413,186.651 L1216.8413,115.8269 L1206.8413,105.8269 L967.86,105.8269 A0,0 0 0 0 967.86,105.8269" fill="#FEFFDD" style="stroke:#181818;stroke-width:0.5;"/><path d="M1206.8413,105.8269 L1206.8413,115.8269 L1216.8413,115.8269 L1206.8413,105.8269" fill="#FEFFDD" style="stroke:#181818;stroke-width:0.5;"/><text fill="#000000" font-family="sans-serif" font-size="13" lengthAdjust="spacing" textLength="164.3592" x="973.86" y="124.7239">This is just for convenience</text><text fill="#000000" font-family="sans-serif" font-size="13" lengthAdjust="spacing" textLength="200.7722" x="973.86" y="142.4299">Otherwise you would have to do:</text><text fill="#000000" font-family="sans-serif" font-size="13" font-style="italic" lengthAdjust="spacing" textLength="195.3122" x="973.86" y="160.136">appData.getCryptogram(appData</text><text fill="#000000" font-family="sans-serif" font-size="13" font-style="italic" lengthAdjust="spacing" textLength="214.4612" x="987.38" y="177.842">.getCurrentUser().getCryptogramID())</text><path d="M967.86,196.651 L967.86,233.063 L791.4637,235.7146 L967.86,241.063 L967.86,277.4751 A0,0 0 0 0 967.86,277.4751 L1344.6964,277.4751 A0,0 0 0 0 1344.6964,277.4751 L1344.6964,206.651 L1334.6964,196.651 L967.86,196.651 A0,0 0 0 0 967.86,196.651" fill="#FEFFDD" style="stroke:#181818;stroke-width:0.5;"/><path d="M1334.6964,196.651 L1334.6964,206.651 L1344.6964,206.651 L1334.6964,196.651" fill="#FEFFDD" style="stroke:#181818;stroke-width:0.5;"/><text fill="#000000" font-family="sans-serif" font-size="13" lengthAdjust="spacing" textLength="283.8162" x="973.86" y="215.548">If the user input asks for a hint or the solution,</text><text fill="#000000" font-family="sans-serif" font-size="13" lengthAdjust="spacing" textLength="355.8364" x="973.86" y="233.254">currCryptogram.getHint() or currCryptogram.getSolution()</text><text fill="#000000" font-family="sans-serif" font-size="13" lengthAdjust="spacing" textLength="98.6051" x="973.86" y="250.96">would be called.</text><text fill="#4169E1" font-family="sans-serif" font-size="13" lengthAdjust="spacing" textLength="74.3211" x="973.86" y="268.666">User Story 2</text><!--class Cryptogram--><g class="entity" data-entity="Cryptogram" data-source-line="3" data-uid="ent0005" id="entity_Cryptogram"><rect fill="#F1F1F1" height="353.0867" rx="2.5" ry="2.5" style="stroke:#181818;stroke-width:0.5;" width="360.5987" x="643.98" y="815.1969"/><ellipse cx="780.4095" cy="831.1969" fill="#ADD1B2" rx="11" ry="11" style="stroke:#181818;stroke-width:1;"/><path d="M779.8783,838.1188 Q778.1283,838.1188 776.9876,837.3844 Q775.8626,836.6344 775.3001,835.2907 Q774.7533,833.9313 774.7533,832.1344 Q774.7533,830.1032 775.4095,828.65 Q776.0658,827.1969 777.347,826.4157 Q778.6283,825.6344 780.5033,825.6344 Q781.3939,825.6344 782.0658,825.8219 Q782.7376,825.9938 783.4251,826.3375 L782.6126,828.3532 Q781.9876,828.0407 781.4408,827.9157 Q780.9095,827.7907 780.4251,827.7907 Q779.2533,827.7907 778.5501,828.3219 Q777.847,828.8532 777.5501,829.8063 Q777.2533,830.7594 777.2533,832.025 Q777.2533,834.0407 777.972,835.0094 Q778.6908,835.9625 780.2845,835.9625 Q780.8783,835.9625 781.5033,835.8063 Q782.1283,835.65 782.9564,835.275 L782.9564,837.4938 Q782.222,837.8063 781.4251,837.9625 Q780.6439,838.1188 779.8783,838.1188 Z " fill="#000000"/><text fill="#000000" font-family="sans-serif" font-size="14" lengthAdjust="spacing" textLength="79.2397" x="800.9095" y="836.6289">Cryptogram</text><line style="stroke:#181818;stroke-width:0.5;" x1="644.98" x2="1003.5787" y1="847.1969" y2="847.1969"/><rect fill="none" height="6" style="stroke:#C82930;stroke-width:1;" width="6" x="651.98" y="859.2309"/><text fill="#000000" font-family="sans-serif" font-size="14" lengthAdjust="spacing" textLength="81.4517" x="663.98" y="866.1629">cryptoID: int</text><rect fill="none" height="6" style="stroke:#C82930;stroke-width:1;" width="6" x="651.98" y="878.2988"/><text fill="#000000" font-family="sans-serif" font-size="14" lengthAdjust="spacing" textLength="155.9314" x="663.98" y="885.2308">cryptoType: CryptoType</text><rect fill="none" height="6" style="stroke:#C82930;stroke-width:1;" width="6" x="651.98" y="897.3667"/><text fill="#000000" font-family="sans-serif" font-size="14" lengthAdjust="spacing" textLength="100.0156" x="663.98" y="904.2987">solution: String</text><rect fill="none" height="6" style="stroke:#C82930;stroke-width:1;" width="6" x="651.98" y="916.4346"/><text fill="#000000" font-family="sans-serif" font-size="14" lengthAdjust="spacing" textLength="319.5768" x="663.98" y="923.3666">guesses: LinkedHashmap&lt;Character, Character&gt;</text><rect fill="none" height="6" style="stroke:#C82930;stroke-width:1;" width="6" x="651.98" y="935.5025"/><text fill="#000000" font-family="sans-serif" font-size="14" lengthAdjust="spacing" textLength="334.5987" x="663.98" y="942.4345">correctMappings: Hashmap&lt;Character, Character&gt;</text><text fill="#000000" font-family="sans-serif" font-size="14" lengthAdjust="spacing" textLength="3.64" x="663.98" y="961.5024">&#160;</text><ellipse cx="654.98" cy="976.6384" fill="#84BE84" rx="3" ry="3" style="stroke:#038048;stroke-width:1;"/><text fill="#000000" font-family="sans-serif" font-size="14" font-weight="bold" lengthAdjust="spacing" textLength="179.1573" x="663.98" y="980.5704">Cryptogram(CryptoID int)</text><ellipse cx="654.98" cy="1018.7742" fill="#84BE84" rx="3" ry="3" style="stroke:#038048;stroke-width:1;"/><text fill="#000000" font-family="sans-serif" font-size="14" lengthAdjust="spacing" textLength="160.8314" x="663.98" y="1022.7062">userGuessAccuracy(): int</text><ellipse cx="654.98" cy="1037.8421" fill="#84BE84" rx="3" ry="3" style="stroke:#038048;stroke-width:1;"/><text fill="#000000" font-family="sans-serif" font-size="14" lengthAdjust="spacing" textLength="57.6518" x="663.98" y="1041.7741">getHint()</text><ellipse cx="654.98" cy="1056.91" fill="#84BE84" rx="3" ry="3" style="stroke:#038048;stroke-width:1;"/><text fill="#000000" font-family="sans-serif" font-size="14" lengthAdjust="spacing" textLength="97.4396" x="663.98" y="1060.842">showSolution()</text><ellipse cx="654.98" cy="1075.978" fill="#84BE84" rx="3" ry="3" style="stroke:#038048;stroke-width:1;"/><text fill="#000000" font-family="sans-serif" font-size="14" lengthAdjust="spacing" textLength="78.4977" x="663.98" y="1079.9099">undoInput()</text><text fill="#000000" font-family="sans-serif" font-size="14" lengthAdjust="spacing" textLength="3.64" x="663.98" y="1098.9779">&#160;</text><line style="stroke:#181818;stroke-width:1;stroke-dasharray:1,2;" x1="644.98" x2="758.8016" y1="998.2063" y2="998.2063"/><text fill="#000000" font-family="sans-serif" font-size="14" lengthAdjust="spacing" textLength="130.9555" x="758.8016" y="1003.1383">setter &amp; other funcs</text><line style="stroke:#181818;stroke-width:1;stroke-dasharray:1,2;" x1="889.7571" x2="1003.5787" y1="998.2063" y2="998.2063"/><ellipse cx="654.98" cy="1137.1817" fill="#84BE84" rx="3" ry="3" style="stroke:#038048;stroke-width:1;"/><text fill="#000000" font-family="sans-serif" font-size="14" lengthAdjust="spacing" textLength="113.5396" x="663.98" y="1141.1137">getCryptoID(): int</text><ellipse cx="654.98" cy="1156.2496" fill="#84BE84" rx="3" ry="3" style="stroke:#038048;stroke-width:1;"/><text fill="#000000" font-family="sans-serif" font-size="14" lengthAdjust="spacing" textLength="274.2729" x="663.98" y="1160.1816">getFrequency(): Hashmap&lt;Character, int&gt;</text><line style="stroke:#181818;stroke-width:1;stroke-dasharray:1,2;" x1="644.98" x2="800.7804" y1="1116.6138" y2="1116.6138"/><text fill="#000000" font-family="sans-serif" font-size="14" lengthAdjust="spacing" textLength="46.9978" x="800.7804" y="1121.5458">getters</text><line style="stroke:#181818;stroke-width:1;stroke-dasharray:1,2;" x1="847.7783" x2="1003.5787" y1="1116.6138" y2="1116.6138"/></g><!--class CryptoType--><g class="entity" data-entity="CryptoType" data-source-line="22" data-uid="ent0006" id="entity_CryptoType"><rect fill="#F1F1F1" height="86.1358" rx="2.5" ry="2.5" style="stroke:#181818;stroke-width:0.5;" width="136.5156" x="756.02" y="1255.5269"/><ellipse cx="784.1518" cy="1271.5269" fill="#EB937F" rx="11" ry="11" style="stroke:#181818;stroke-width:1;"/><path d="M780.5112,1278.0269 L780.5112,1265.8863 L788.1675,1265.8863 L788.1675,1268.0113 L782.8862,1268.0113 L782.8862,1270.6675 L787.9018,1270.6675 L787.9018,1272.7925 L782.8862,1272.7925 L782.8862,1275.9019 L788.1675,1275.9019 L788.1675,1278.0269 L780.5112,1278.0269 Z " fill="#000000"/><text fill="#000000" font-family="sans-serif" font-size="14" lengthAdjust="spacing" textLength="75.3337" x="801.07" y="1276.9589">CryptoType</text><line style="stroke:#181818;stroke-width:0.5;" x1="757.02" x2="891.5356" y1="1287.5269" y2="1287.5269"/><ellipse cx="767.02" cy="1302.5609" fill="none" rx="3" ry="3" style="stroke:#038048;stroke-width:1;"/><text fill="#000000" font-family="sans-serif" font-size="14" lengthAdjust="spacing" textLength="93.1277" x="776.02" y="1306.4929">letter-to-letter</text><ellipse cx="767.02" cy="1321.6288" fill="none" rx="3" ry="3" style="stroke:#038048;stroke-width:1;"/><text fill="#000000" font-family="sans-serif" font-size="14" lengthAdjust="spacing" textLength="110.5156" x="776.02" y="1325.5608">letter-to-number</text><line style="stroke:#181818;stroke-width:0.5;" x1="757.02" x2="891.5356" y1="1333.6628" y2="1333.6628"/></g><g class="entity" data-entity="GMN7" data-source-line="29" data-uid="ent0008" id="entity_GMN7"><path d="M927.09,1284.7469 L927.09,1294.5969 L892.69,1298.5969 L927.09,1302.5969 L927.09,1312.4529 A0,0 0 0 0 927.09,1312.4529 L1173.4582,1312.4529 A0,0 0 0 0 1173.4582,1312.4529 L1173.4582,1294.7469 L1163.4582,1284.7469 L927.09,1284.7469 A0,0 0 0 0 927.09,1284.7469" fill="#FEFFDD" style="stroke:#181818;stroke-width:0.5;"/><path d="M1163.4582,1284.7469 L1163.4582,1294.7469 L1173.4582,1294.7469 L1163.4582,1284.7469" fill="#FEFFDD" style="stroke:#181818;stroke-width:0.5;"/><text fill="#000000" font-family="sans-serif" font-size="13" lengthAdjust="spacing" textLength="225.3682" x="933.09" y="1303.6439">Enum that stores type of cryptogram</text></g><path d="M1039.09,788.9369 L1039.09,843.055 L983.5568,917.9346 L1039.09,851.055 L1039.09,905.173 A0,0 0 0 0 1039.09,905.173 L1303.7882,905.173 A0,0 0 0 0 1303.7882,905.173 L1303.7882,798.9369 L1293.7882,788.9369 L1039.09,788.9369 A0,0 0 0 0 1039.09,788.9369" fill="#FEFFDD" style="stroke:#181818;stroke-width:0.5;"/><path d="M1293.7882,788.9369 L1293.7882,798.9369 L1303.7882,798.9369 L1293.7882,788.9369" fill="#FEFFDD" style="stroke:#181818;stroke-width:0.5;"/><text fill="#000000" font-family="sans-serif" font-size="13" lengthAdjust="spacing" textLength="206.9082" x="1045.09" y="807.8339">This is stored in a linked hashmap</text><text fill="#000000" font-family="sans-serif" font-size="13" lengthAdjust="spacing" textLength="240.3182" x="1045.09" y="825.5399">because so that we can remove the last</text><text fill="#000000" font-family="sans-serif" font-size="13" lengthAdjust="spacing" textLength="224.0033" x="1045.09" y="843.246">guess using the undoInput() method</text><text fill="#000000" font-family="sans-serif" font-size="13" lengthAdjust="spacing" textLength="3.38" x="1045.09" y="860.952">&#160;</text><text fill="#000000" font-family="sans-serif" font-size="13" lengthAdjust="spacing" textLength="91.8841" x="1045.09" y="878.658">Stored in form:</text><text fill="#000000" font-family="sans-serif" font-size="13" lengthAdjust="spacing" textLength="218.2702" x="1045.09" y="896.364">LinkedHashmap&lt;guess, encrypted&gt;</text><path d="M1039.09,915.173 L1039.09,933.879 L998.5787,937.0025 L1039.09,941.879 L1039.09,960.5851 A0,0 0 0 0 1039.09,960.5851 L1285.6532,960.5851 A0,0 0 0 0 1285.6532,960.5851 L1285.6532,925.173 L1275.6532,915.173 L1039.09,915.173 A0,0 0 0 0 1039.09,915.173" fill="#FEFFDD" style="stroke:#181818;stroke-width:0.5;"/><path d="M1275.6532,915.173 L1275.6532,925.173 L1285.6532,925.173 L1275.6532,915.173" fill="#FEFFDD" style="stroke:#181818;stroke-width:0.5;"/><text fill="#000000" font-family="sans-serif" font-size="13" lengthAdjust="spacing" textLength="91.8841" x="1045.09" y="934.07">Stored in form:</text><text fill="#000000" font-family="sans-serif" font-size="13" lengthAdjust="spacing" textLength="225.5632" x="1045.09" y="951.776">LinkedHashmap&lt;correct, encrypted&gt;</text><path d="M1039.09,970.5851 L1039.09,980.4381 L742.4777,1074.478 L1039.09,988.4381 L1039.09,998.2911 A0,0 0 0 0 1039.09,998.2911 L1134.4111,998.2911 A0,0 0 0 0 1134.4111,998.2911 L1134.4111,980.5851 L1124.4111,970.5851 L1039.09,970.5851 A0,0 0 0 0 1039.09,970.5851" fill="#FEFFDD" style="stroke:#181818;stroke-width:0.5;"/><path d="M1124.4111,970.5851 L1124.4111,980.5851 L1134.4111,980.5851 L1124.4111,970.5851" fill="#FEFFDD" style="stroke:#181818;stroke-width:0.5;"/><text fill="#4169E1" font-family="sans-serif" font-size="13" lengthAdjust="spacing" textLength="74.3211" x="1045.09" y="989.4821">User Story 3</text><path d="M1039.09,1008.2911 L1039.09,1018.1441 L824.8114,1017.2742 L1039.09,1026.1441 L1039.09,1035.9971 A0,0 0 0 0 1039.09,1035.9971 L1141.8471,1035.9971 A0,0 0 0 0 1141.8471,1035.9971 L1141.8471,1018.2911 L1131.8471,1008.2911 L1039.09,1008.2911 A0,0 0 0 0 1039.09,1008.2911" fill="#FEFFDD" style="stroke:#181818;stroke-width:0.5;"/><path d="M1131.8471,1008.2911 L1131.8471,1018.2911 L1141.8471,1018.2911 L1131.8471,1008.2911" fill="#FEFFDD" style="stroke:#181818;stroke-width:0.5;"/><text fill="#4169E1" font-family="sans-serif" font-size="13" lengthAdjust="spacing" textLength="81.7571" x="1045.09" y="1027.1881">User Story 11</text><path d="M1039.09,1045.9971 L1039.09,1064.7031 L721.6318,1036.3421 L1039.09,1072.7031 L1039.09,1091.4091 A0,0 0 0 0 1039.09,1091.4091 L1288.0972,1091.4091 A0,0 0 0 0 1288.0972,1091.4091 L1288.0972,1055.9971 L1278.0972,1045.9971 L1039.09,1045.9971 A0,0 0 0 0 1039.09,1045.9971" fill="#FEFFDD" style="stroke:#181818;stroke-width:0.5;"/><path d="M1278.0972,1045.9971 L1278.0972,1055.9971 L1288.0972,1055.9971 L1278.0972,1045.9971" fill="#FEFFDD" style="stroke:#181818;stroke-width:0.5;"/><text fill="#000000" font-family="sans-serif" font-size="13" lengthAdjust="spacing" textLength="228.0072" x="1045.09" y="1064.8941">Would add a correct letter to guesses</text><text fill="#4169E1" font-family="sans-serif" font-size="13" lengthAdjust="spacing" textLength="81.7571" x="1045.09" y="1082.6001">User Story 14</text><path d="M1039.09,1101.4091 L1039.09,1120.1151 L761.4196,1055.41 L1039.09,1128.1151 L1039.09,1146.8212 A0,0 0 0 0 1039.09,1146.8212 L1325.4593,1146.8212 A0,0 0 0 0 1325.4593,1146.8212 L1325.4593,1111.4091 L1315.4593,1101.4091 L1039.09,1101.4091 A0,0 0 0 0 1039.09,1101.4091" fill="#FEFFDD" style="stroke:#181818;stroke-width:0.5;"/><path d="M1315.4593,1101.4091 L1315.4593,1111.4091 L1325.4593,1111.4091 L1315.4593,1101.4091" fill="#FEFFDD" style="stroke:#181818;stroke-width:0.5;"/><text fill="#000000" font-family="sans-serif" font-size="13" lengthAdjust="spacing" textLength="265.3693" x="1045.09" y="1120.3061">Would fill guesses in with correct mappings</text><text fill="#4169E1" font-family="sans-serif" font-size="13" lengthAdjust="spacing" textLength="74.3211" x="1045.09" y="1138.0121">User Story 6</text><path d="M1039.09,1156.8212 L1039.09,1166.6742 L938.2529,1154.7496 L1039.09,1174.6742 L1039.09,1184.5272 A0,0 0 0 0 1039.09,1184.5272 L1134.4111,1184.5272 A0,0 0 0 0 1134.4111,1184.5272 L1134.4111,1166.8212 L1124.4111,1156.8212 L1039.09,1156.8212 A0,0 0 0 0 1039.09,1156.8212" fill="#FEFFDD" style="stroke:#181818;stroke-width:0.5;"/><path d="M1124.4111,1156.8212 L1124.4111,1166.8212 L1134.4111,1166.8212 L1124.4111,1156.8212" fill="#FEFFDD" style="stroke:#181818;stroke-width:0.5;"/><text fill="#4169E1" font-family="sans-serif" font-size="13" lengthAdjust="spacing" textLength="74.3211" x="1045.09" y="1175.7182">User Story 7</text><!--class User--><g class="entity" data-entity="User" data-source-line="1" data-uid="ent0012" id="entity_User"><rect fill="#F1F1F1" height="334.0188" rx="2.5" ry="2.5" style="stroke:#181818;stroke-width:0.5;" width="253.9751" x="291.29" y="824.7269"/><ellipse cx="398.7186" cy="840.7269" fill="#ADD1B2" rx="11" ry="11" style="stroke:#181818;stroke-width:1;"/><path d="M398.1874,847.6488 Q396.4374,847.6488 395.2967,846.9144 Q394.1717,846.1644 393.6092,844.8207 Q393.0624,843.4613 393.0624,841.6644 Q393.0624,839.6332 393.7186,838.18 Q394.3749,836.7269 395.6561,835.9457 Q396.9374,835.1644 398.8124,835.1644 Q399.703,835.1644 400.3749,835.3519 Q401.0467,835.5238 401.7342,835.8675 L400.9217,837.8832 Q400.2967,837.5707 399.7499,837.4457 Q399.2186,837.3207 398.7342,837.3207 Q397.5624,837.3207 396.8592,837.8519 Q396.1561,838.3832 395.8592,839.3363 Q395.5624,840.2894 395.5624,841.555 Q395.5624,843.5707 396.2811,844.5394 Q396.9999,845.4925 398.5936,845.4925 Q399.1874,845.4925 399.8124,845.3363 Q400.4374,845.18 401.2655,844.805 L401.2655,847.0238 Q400.5311,847.3363 399.7342,847.4925 Q398.953,847.6488 398.1874,847.6488 Z " fill="#000000"/><text fill="#000000" font-family="sans-serif" font-size="14" lengthAdjust="spacing" textLength="30.6179" x="419.2186" y="846.1589">User</text><line style="stroke:#181818;stroke-width:0.5;" x1="292.29" x2="544.2651" y1="856.7269" y2="856.7269"/><rect fill="none" height="6" style="stroke:#C82930;stroke-width:1;" width="6" x="299.29" y="868.7609"/><text fill="#000000" font-family="sans-serif" font-size="14" lengthAdjust="spacing" textLength="84.2797" x="311.29" y="875.6929">name: String</text><rect fill="none" height="6" style="stroke:#C82930;stroke-width:1;" width="6" x="299.29" y="887.8288"/><text fill="#000000" font-family="sans-serif" font-size="14" lengthAdjust="spacing" textLength="99.0076" x="311.29" y="894.7608">gamesWon: int</text><rect fill="none" height="6" style="stroke:#C82930;stroke-width:1;" width="6" x="299.29" y="906.8967"/><text fill="#000000" font-family="sans-serif" font-size="14" lengthAdjust="spacing" textLength="101.6396" x="311.29" y="913.8287">gamesTotal: int</text><rect fill="none" height="6" style="stroke:#C82930;stroke-width:1;" width="6" x="299.29" y="925.9646"/><text fill="#000000" font-family="sans-serif" font-size="14" lengthAdjust="spacing" textLength="110.5156" x="311.29" y="932.8966">currCryptoID: int</text><text fill="#000000" font-family="sans-serif" font-size="14" lengthAdjust="spacing" textLength="3.64" x="311.29" y="951.9645">&#160;</text><ellipse cx="302.29" cy="967.1005" fill="#84BE84" rx="3" ry="3" style="stroke:#038048;stroke-width:1;"/><text fill="#000000" font-family="sans-serif" font-size="14" font-weight="bold" lengthAdjust="spacing" textLength="41.7198" x="311.29" y="971.0324">User()</text><ellipse cx="302.29" cy="1009.2363" fill="#84BE84" rx="3" ry="3" style="stroke:#038048;stroke-width:1;"/><text fill="#000000" font-family="sans-serif" font-size="14" lengthAdjust="spacing" textLength="151.6334" x="311.29" y="1013.1683">incrementGamesWon()</text><ellipse cx="302.29" cy="1028.3042" fill="#84BE84" rx="3" ry="3" style="stroke:#038048;stroke-width:1;"/><text fill="#000000" font-family="sans-serif" font-size="14" lengthAdjust="spacing" textLength="154.2654" x="311.29" y="1032.2362">incrementGamesTotal()</text><ellipse cx="302.29" cy="1047.3721" fill="#84BE84" rx="3" ry="3" style="stroke:#038048;stroke-width:1;"/><text fill="#000000" font-family="sans-serif" font-size="14" lengthAdjust="spacing" textLength="227.9751" x="311.29" y="1051.3041">setCurrentCypto(newCryptoID: int)</text><line style="stroke:#181818;stroke-width:1;stroke-dasharray:1,2;" x1="292.29" x2="367.7307" y1="988.6684" y2="988.6684"/><text fill="#000000" font-family="sans-serif" font-size="14" lengthAdjust="spacing" textLength="101.0936" x="367.7307" y="993.6004">Setter Methods</text><line style="stroke:#181818;stroke-width:1;stroke-dasharray:1,2;" x1="468.8244" x2="544.2651" y1="988.6684" y2="988.6684"/><ellipse cx="302.29" cy="1089.508" fill="#84BE84" rx="3" ry="3" style="stroke:#038048;stroke-width:1;"/><text fill="#000000" font-family="sans-serif" font-size="14" lengthAdjust="spacing" textLength="116.2276" x="311.29" y="1093.4399">getName(): String</text><ellipse cx="302.29" cy="1108.5759" fill="#84BE84" rx="3" ry="3" style="stroke:#038048;stroke-width:1;"/><text fill="#000000" font-family="sans-serif" font-size="14" lengthAdjust="spacing" textLength="130.5495" x="311.29" y="1112.5079">getGamesWon(): int</text><ellipse cx="302.29" cy="1127.6438" fill="#84BE84" rx="3" ry="3" style="stroke:#038048;stroke-width:1;"/><text fill="#000000" font-family="sans-serif" font-size="14" lengthAdjust="spacing" textLength="133.1815" x="311.29" y="1131.5758">getGamesTotal(): int</text><ellipse cx="302.29" cy="1146.7117" fill="#84BE84" rx="3" ry="3" style="stroke:#038048;stroke-width:1;"/><text fill="#000000" font-family="sans-serif" font-size="14" lengthAdjust="spacing" textLength="142.6035" x="311.29" y="1150.6437">getCurrCryptoID(): int</text><line style="stroke:#181818;stroke-width:1;stroke-dasharray:1,2;" x1="292.29" x2="366.4778" y1="1068.94" y2="1068.94"/><text fill="#000000" font-family="sans-serif" font-size="14" lengthAdjust="spacing" textLength="103.5996" x="366.4778" y="1073.872">Getter Methods</text><line style="stroke:#181818;stroke-width:1;stroke-dasharray:1,2;" x1="470.0774" x2="544.2651" y1="1068.94" y2="1068.94"/></g><path d="M84.69,873.2069 L84.69,900.9129 A0,0 0 0 0 84.69,900.9129 L180.0111,900.9129 A0,0 0 0 0 180.0111,900.9129 L180.0111,891.2069 L295.29,889.3288 L180.0111,883.2069 L180.0111,883.2069 L170.0111,873.2069 L84.69,873.2069 A0,0 0 0 0 84.69,873.2069" fill="#FEFFDD" style="stroke:#181818;stroke-width:0.5;"/><path d="M170.0111,873.2069 L170.0111,883.2069 L180.0111,883.2069 L170.0111,873.2069" fill="#FEFFDD" style="stroke:#181818;stroke-width:0.5;"/><text fill="#4169E1" font-family="sans-serif" font-size="13" lengthAdjust="spacing" textLength="74.3211" x="90.69" y="892.1039">User Story 9</text><path d="M84.69,910.9129 L84.69,938.619 A0,0 0 0 0 84.69,938.619 L187.4471,938.619 A0,0 0 0 0 187.4471,938.619 L187.4471,928.9129 L295.29,908.3967 L187.4471,920.9129 L187.4471,920.9129 L177.4471,910.9129 L84.69,910.9129 A0,0 0 0 0 84.69,910.9129" fill="#FEFFDD" style="stroke:#181818;stroke-width:0.5;"/><path d="M177.4471,910.9129 L177.4471,920.9129 L187.4471,920.9129 L177.4471,910.9129" fill="#FEFFDD" style="stroke:#181818;stroke-width:0.5;"/><text fill="#4169E1" font-family="sans-serif" font-size="13" lengthAdjust="spacing" textLength="81.7571" x="90.69" y="929.8099">User Story 10</text><path d="M84.69,948.619 L84.69,1100.2671 A0,0 0 0 0 84.69,1100.2671 L255.8661,1100.2671 A0,0 0 0 0 255.8661,1100.2671 L255.8661,1028.443 L295.29,927.4646 L255.8661,1020.443 L255.8661,958.619 L245.8661,948.619 L84.69,948.619 A0,0 0 0 0 84.69,948.619" fill="#FEFFDD" style="stroke:#181818;stroke-width:0.5;"/><path d="M245.8661,948.619 L245.8661,958.619 L255.8661,958.619 L245.8661,948.619" fill="#FEFFDD" style="stroke:#181818;stroke-width:0.5;"/><text fill="#000000" font-family="sans-serif" font-size="13" lengthAdjust="spacing" textLength="87.3991" x="90.69" y="967.516">If this is NULL:</text><text fill="#000000" font-family="sans-serif" font-size="13" lengthAdjust="spacing" textLength="112.3981" x="90.69" y="985.222">The player doesn't</text><text fill="#000000" font-family="sans-serif" font-size="13" lengthAdjust="spacing" textLength="88.3871" x="90.69" y="1002.928">have a current</text><text fill="#000000" font-family="sans-serif" font-size="13" lengthAdjust="spacing" textLength="71.6041" x="90.69" y="1020.634">cryptogram</text><text fill="#000000" font-family="sans-serif" font-size="13" lengthAdjust="spacing" textLength="3.38" x="90.69" y="1038.34">&#160;</text><text fill="#000000" font-family="sans-serif" font-size="13" lengthAdjust="spacing" textLength="143.3121" x="90.69" y="1056.046">If they are a new player</text><text fill="#000000" font-family="sans-serif" font-size="13" lengthAdjust="spacing" textLength="146.7961" x="90.69" y="1073.7521">Or they've finished their</text><text fill="#000000" font-family="sans-serif" font-size="13" lengthAdjust="spacing" textLength="119.8991" x="90.69" y="1091.4581">previus cryptogram</text><!--class AppData--><g class="entity" data-entity="AppData" data-source-line="2" data-uid="ent0015" id="entity_AppData"><rect fill="#F1F1F1" height="334.0188" rx="2.5" ry="2.5" style="stroke:#181818;stroke-width:0.5;" width="314.0209" x="497.26" y="375.9269"/><ellipse cx="621.4466" cy="391.9269" fill="#ADD1B2" rx="11" ry="11" style="stroke:#181818;stroke-width:1;"/><path d="M620.9153,398.8488 Q619.1653,398.8488 618.0247,398.1144 Q616.8997,397.3644 616.3372,396.0207 Q615.7903,394.6613 615.7903,392.8644 Q615.7903,390.8332 616.4466,389.38 Q617.1028,387.9269 618.3841,387.1457 Q619.6653,386.3644 621.5403,386.3644 Q622.4309,386.3644 623.1028,386.5519 Q623.7747,386.7238 624.4622,387.0675 L623.6497,389.0832 Q623.0247,388.7707 622.4778,388.6457 Q621.9466,388.5207 621.4622,388.5207 Q620.2903,388.5207 619.5872,389.0519 Q618.8841,389.5832 618.5872,390.5363 Q618.2903,391.4894 618.2903,392.755 Q618.2903,394.7707 619.0091,395.7394 Q619.7278,396.6925 621.3216,396.6925 Q621.9153,396.6925 622.5403,396.5363 Q623.1653,396.38 623.9934,396.005 L623.9934,398.2238 Q623.2591,398.5363 622.4622,398.6925 Q621.6809,398.8488 620.9153,398.8488 Z " fill="#000000"/><text fill="#000000" font-family="sans-serif" font-size="14" lengthAdjust="spacing" textLength="57.1478" x="641.9466" y="397.3589">AppData</text><line style="stroke:#181818;stroke-width:0.5;" x1="498.26" x2="810.2809" y1="407.9269" y2="407.9269"/><rect fill="none" height="6" style="stroke:#C82930;stroke-width:1;" width="6" x="505.26" y="419.9609"/><text fill="#000000" font-family="sans-serif" font-size="14" lengthAdjust="spacing" textLength="117.1656" x="517.26" y="426.8929">currentUser: User</text><rect fill="none" height="6" style="stroke:#C82930;stroke-width:1;" width="6" x="505.26" y="439.0288"/><text fill="#000000" font-family="sans-serif" font-size="14" lengthAdjust="spacing" textLength="147.9794" x="517.26" y="445.9608">users: ArrayList&lt;User&gt;</text><rect fill="none" height="6" style="stroke:#C82930;stroke-width:1;" width="6" x="505.26" y="458.0967"/><text fill="#000000" font-family="sans-serif" font-size="14" lengthAdjust="spacing" textLength="244.6771" x="517.26" y="465.0287">cryptograms: ArrayList&lt;Cryptogram&gt;</text><text fill="#000000" font-family="sans-serif" font-size="14" lengthAdjust="spacing" textLength="3.64" x="517.26" y="484.0966">&#160;</text><ellipse cx="508.26" cy="499.2325" fill="#84BE84" rx="3" ry="3" style="stroke:#038048;stroke-width:1;"/><text fill="#000000" font-family="sans-serif" font-size="14" font-weight="bold" lengthAdjust="spacing" textLength="69.9717" x="517.26" y="503.1645">AppData()</text><ellipse cx="508.26" cy="541.3684" fill="#84BE84" rx="3" ry="3" style="stroke:#038048;stroke-width:1;"/><text fill="#000000" font-family="sans-serif" font-size="14" lengthAdjust="spacing" textLength="222.6552" x="517.26" y="545.3004">setCurrentUser(username: String)</text><ellipse cx="508.26" cy="560.4363" fill="#84BE84" rx="3" ry="3" style="stroke:#038048;stroke-width:1;"/><text fill="#000000" font-family="sans-serif" font-size="14" lengthAdjust="spacing" textLength="179.8853" x="517.26" y="564.3683">newUser(username: String)</text><ellipse cx="508.26" cy="579.5042" fill="#84BE84" rx="3" ry="3" style="stroke:#038048;stroke-width:1;"/><text fill="#000000" font-family="sans-serif" font-size="14" lengthAdjust="spacing" textLength="288.0209" x="517.26" y="583.4362">checkUserExists(username: String): boolean</text><ellipse cx="508.26" cy="598.5721" fill="#84BE84" rx="3" ry="3" style="stroke:#038048;stroke-width:1;"/><text fill="#000000" font-family="sans-serif" font-size="14" lengthAdjust="spacing" textLength="139.9015" x="517.26" y="602.5041">newCryptogram(): int</text><line style="stroke:#181818;stroke-width:1;stroke-dasharray:1,2;" x1="498.26" x2="635.0765" y1="520.8005" y2="520.8005"/><text fill="#000000" font-family="sans-serif" font-size="14" lengthAdjust="spacing" textLength="38.3879" x="635.0765" y="525.7324">setter</text><line style="stroke:#181818;stroke-width:1;stroke-dasharray:1,2;" x1="673.4644" x2="810.2809" y1="520.8005" y2="520.8005"/><ellipse cx="508.26" cy="640.708" fill="#84BE84" rx="3" ry="3" style="stroke:#038048;stroke-width:1;"/><text fill="#000000" font-family="sans-serif" font-size="14" lengthAdjust="spacing" textLength="277.283" x="517.26" y="644.6399">getCryptogram(cryptoID: int): Cryptogram</text><ellipse cx="508.26" cy="659.7759" fill="#84BE84" rx="3" ry="3" style="stroke:#038048;stroke-width:1;"/><text fill="#000000" font-family="sans-serif" font-size="14" lengthAdjust="spacing" textLength="276.765" x="517.26" y="663.7079">getCryptograms(): ArrayList&lt;Cryptogram&gt;</text><ellipse cx="508.26" cy="678.8438" fill="#84BE84" rx="3" ry="3" style="stroke:#038048;stroke-width:1;"/><text fill="#000000" font-family="sans-serif" font-size="14" lengthAdjust="spacing" textLength="76.6077" x="517.26" y="682.7758">saveToFile()</text><ellipse cx="508.26" cy="697.9117" fill="#84BE84" rx="3" ry="3" style="stroke:#038048;stroke-width:1;"/><text fill="#000000" font-family="sans-serif" font-size="14" lengthAdjust="spacing" textLength="93.9397" x="517.26" y="701.8437">loadFromFile()</text><line style="stroke:#181818;stroke-width:1;stroke-dasharray:1,2;" x1="498.26" x2="630.7716" y1="620.14" y2="620.14"/><text fill="#000000" font-family="sans-serif" font-size="14" lengthAdjust="spacing" textLength="46.9978" x="630.7716" y="625.072">getters</text><line style="stroke:#181818;stroke-width:1;stroke-dasharray:1,2;" x1="677.7694" x2="810.2809" y1="620.14" y2="620.14"/></g><g class="entity" data-entity="GMN16" data-source-line="21" data-uid="ent0017" id="entity_GMN16"><path d="M845.85,529.0769 L845.85,538.9269 L811.61,542.9269 L845.85,546.9269 L845.85,556.7829 A0,0 0 0 0 845.85,556.7829 L1050.6962,556.7829 A0,0 0 0 0 1050.6962,556.7829 L1050.6962,539.0769 L1040.6962,529.0769 L845.85,529.0769 A0,0 0 0 0 845.85,529.0769" fill="#FEFFDD" style="stroke:#181818;stroke-width:0.5;"/><path d="M1040.6962,529.0769 L1040.6962,539.0769 L1050.6962,539.0769 L1040.6962,529.0769" fill="#FEFFDD" style="stroke:#181818;stroke-width:0.5;"/><text fill="#000000" font-family="sans-serif" font-size="13" lengthAdjust="spacing" textLength="183.8462" x="851.85" y="547.9739">Stores data while app running</text></g><path d="M240.49,395.5469 L240.49,458.665 A0,0 0 0 0 240.49,458.665 L365.5681,458.665 A0,0 0 0 0 365.5681,458.665 L365.5681,431.1059 L501.26,421.4609 L365.5681,423.1059 L365.5681,405.5469 L355.5681,395.5469 L240.49,395.5469 A0,0 0 0 0 240.49,395.5469" fill="#FEFFDD" style="stroke:#181818;stroke-width:0.5;"/><path d="M355.5681,395.5469 L355.5681,405.5469 L365.5681,405.5469 L355.5681,395.5469" fill="#FEFFDD" style="stroke:#181818;stroke-width:0.5;"/><text fill="#000000" font-family="sans-serif" font-size="13" lengthAdjust="spacing" textLength="104.0781" x="246.49" y="414.4439">Reference to one</text><text fill="#000000" font-family="sans-serif" font-size="13" lengthAdjust="spacing" textLength="88.4391" x="246.49" y="432.1499">element in the</text><text fill="#000000" font-family="sans-serif" font-size="13" lengthAdjust="spacing" textLength="68.523" x="246.49" y="449.856">users array</text><path d="M240.49,468.665 L240.49,496.371 A0,0 0 0 0 240.49,496.371 L335.8111,496.371 A0,0 0 0 0 335.8111,496.371 L335.8111,486.665 L501.26,440.5288 L335.8111,478.665 L335.8111,478.665 L325.8111,468.665 L240.49,468.665 A0,0 0 0 0 240.49,468.665" fill="#FEFFDD" style="stroke:#181818;stroke-width:0.5;"/><path d="M325.8111,468.665 L325.8111,478.665 L335.8111,478.665 L325.8111,468.665" fill="#FEFFDD" style="stroke:#181818;stroke-width:0.5;"/><text fill="#4169E1" font-family="sans-serif" font-size="13" lengthAdjust="spacing" textLength="74.3211" x="246.49" y="487.562">User Story 8</text><path d="M240.49,506.371 L240.49,534.077 A0,0 0 0 0 240.49,534.077 L335.8111,534.077 A0,0 0 0 0 335.8111,534.077 L335.8111,524.371 L501.26,597.0721 L335.8111,516.371 L335.8111,516.371 L325.8111,506.371 L240.49,506.371 A0,0 0 0 0 240.49,506.371" fill="#FEFFDD" style="stroke:#181818;stroke-width:0.5;"/><path d="M325.8111,506.371 L325.8111,516.371 L335.8111,516.371 L325.8111,506.371" fill="#FEFFDD" style="stroke:#181818;stroke-width:0.5;"/><text fill="#4169E1" font-family="sans-serif" font-size="13" lengthAdjust="spacing" textLength="74.3211" x="246.49" y="525.268">User Story 1</text><path d="M240.49,544.077 L240.49,607.1951 A0,0 0 0 0 240.49,607.1951 L443.5942,607.1951 A0,0 0 0 0 443.5942,607.1951 L443.5942,579.636 L501.26,677.3438 L443.5942,571.636 L443.5942,554.077 L433.5942,544.077 L240.49,544.077 A0,0 0 0 0 240.49,544.077" fill="#FEFFDD" style="stroke:#181818;stroke-width:0.5;"/><path d="M433.5942,544.077 L433.5942,554.077 L443.5942,554.077 L433.5942,544.077" fill="#FEFFDD" style="stroke:#181818;stroke-width:0.5;"/><text fill="#000000" font-family="sans-serif" font-size="13" lengthAdjust="spacing" textLength="132.4571" x="246.49" y="562.974">Saves all the user and</text><text fill="#000000" font-family="sans-serif" font-size="13" lengthAdjust="spacing" textLength="182.1042" x="246.49" y="580.68">cryptogram data in some files</text><text fill="#4169E1" font-family="sans-serif" font-size="13" lengthAdjust="spacing" textLength="74.3211" x="246.49" y="598.386">User Story 4</text><path d="M240.49,617.1951 L240.49,680.3131 A0,0 0 0 0 240.49,680.3131 L462.0672,680.3131 A0,0 0 0 0 462.0672,680.3131 L462.0672,652.7541 L501.26,696.4117 L462.0672,644.7541 L462.0672,627.1951 L452.0672,617.1951 L240.49,617.1951 A0,0 0 0 0 240.49,617.1951" fill="#FEFFDD" style="stroke:#181818;stroke-width:0.5;"/><path d="M452.0672,617.1951 L452.0672,627.1951 L462.0672,627.1951 L452.0672,617.1951" fill="#FEFFDD" style="stroke:#181818;stroke-width:0.5;"/><text fill="#000000" font-family="sans-serif" font-size="13" lengthAdjust="spacing" textLength="134.0561" x="246.49" y="636.0921">Loads all the user and</text><text fill="#000000" font-family="sans-serif" font-size="13" lengthAdjust="spacing" textLength="200.5772" x="246.49" y="653.7981">cryptogram data from some files</text><text fill="#4169E1" font-family="sans-serif" font-size="13" lengthAdjust="spacing" textLength="96.0571" x="246.49" y="671.5041">User Story 5, 12</text><!--class App--><g class="entity" data-entity="App" data-source-line="11" data-uid="ent0021" id="entity_App"><rect fill="#F1F1F1" height="200.5433" rx="2.5" ry="2.5" style="stroke:#181818;stroke-width:0.5;" width="167.4555" x="351.55" y="96.3769"/><ellipse cx="417.9448" cy="112.3769" fill="#ADD1B2" rx="11" ry="11" style="stroke:#181818;stroke-width:1;"/><path d="M417.4135,119.2988 Q415.6635,119.2988 414.5229,118.5644 Q413.3979,117.8144 412.8354,116.4707 Q412.2885,115.1113 412.2885,113.3144 Q412.2885,111.2832 412.9448,109.83 Q413.601,108.3769 414.8823,107.5957 Q416.1635,106.8144 418.0385,106.8144 Q418.9292,106.8144 419.601,107.0019 Q420.2729,107.1738 420.9604,107.5175 L420.1479,109.5332 Q419.5229,109.2207 418.976,109.0957 Q418.4448,108.9707 417.9604,108.9707 Q416.7885,108.9707 416.0854,109.5019 Q415.3823,110.0332 415.0854,110.9863 Q414.7885,111.9394 414.7885,113.205 Q414.7885,115.2207 415.5073,116.1894 Q416.226,117.1425 417.8198,117.1425 Q418.4135,117.1425 419.0385,116.9863 Q419.6635,116.83 420.4917,116.455 L420.4917,118.6738 Q419.7573,118.9863 418.9604,119.1425 Q418.1792,119.2988 417.4135,119.2988 Z " fill="#000000"/><text fill="#000000" font-family="sans-serif" font-size="14" lengthAdjust="spacing" textLength="26.1659" x="438.4448" y="117.8089">App</text><line style="stroke:#181818;stroke-width:0.5;" x1="352.55" x2="518.0055" y1="128.3769" y2="128.3769"/><rect fill="none" height="6" style="stroke:#C82930;stroke-width:1;" width="6" x="359.55" y="140.4109"/><text fill="#000000" font-family="sans-serif" font-size="14" lengthAdjust="spacing" textLength="141.4555" x="371.55" y="147.3429">appData: AppData [1]</text><line style="stroke:#181818;stroke-width:0.5;" x1="352.55" x2="518.0055" y1="155.4448" y2="155.4448"/><ellipse cx="362.55" cy="170.4788" fill="#84BE84" rx="3" ry="3" style="stroke:#038048;stroke-width:1;"/><text fill="#000000" font-family="sans-serif" font-size="14" font-weight="bold" lengthAdjust="spacing" textLength="36.8759" x="371.55" y="174.4108">App()</text><ellipse cx="362.55" cy="189.5467" fill="#84BE84" rx="3" ry="3" style="stroke:#038048;stroke-width:1;"/><text fill="#000000" font-family="sans-serif" font-size="14" lengthAdjust="spacing" textLength="53.8158" x="371.55" y="193.4787">runner()</text><ellipse cx="362.55" cy="208.6146" fill="#84BE84" rx="3" ry="3" style="stroke:#038048;stroke-width:1;"/><text fill="#000000" font-family="sans-serif" font-size="14" lengthAdjust="spacing" textLength="41.3558" x="371.55" y="212.5466">login()</text><ellipse cx="362.55" cy="227.6825" fill="#84BE84" rx="3" ry="3" style="stroke:#038048;stroke-width:1;"/><text fill="#000000" font-family="sans-serif" font-size="14" lengthAdjust="spacing" textLength="92.4137" x="371.55" y="231.6145">gameSetting()</text><ellipse cx="362.55" cy="246.7505" fill="#84BE84" rx="3" ry="3" style="stroke:#038048;stroke-width:1;"/><text fill="#000000" font-family="sans-serif" font-size="14" lengthAdjust="spacing" textLength="77.8817" x="371.55" y="250.6824">startGame()</text><ellipse cx="362.55" cy="265.8184" fill="#84BE84" rx="3" ry="3" style="stroke:#038048;stroke-width:1;"/><text fill="#000000" font-family="sans-serif" font-size="14" lengthAdjust="spacing" textLength="127.9315" x="371.55" y="269.7504">showLeaderboard()</text><ellipse cx="362.55" cy="284.8863" fill="#84BE84" rx="3" ry="3" style="stroke:#038048;stroke-width:1;"/><text fill="#000000" font-family="sans-serif" font-size="14" lengthAdjust="spacing" textLength="74.1997" x="371.55" y="288.8183">shutdown()</text></g><path d="M6,123.5369 L6,186.655 A0,0 0 0 0 6,186.655 L289.6523,186.655 A0,0 0 0 0 289.6523,186.655 L289.6523,159.0959 L355.55,141.9109 L289.6523,151.0959 L289.6523,133.5369 L279.6523,123.5369 L6,123.5369 A0,0 0 0 0 6,123.5369" fill="#FEFFDD" style="stroke:#181818;stroke-width:0.5;"/><path d="M279.6523,123.5369 L279.6523,133.5369 L289.6523,133.5369 L279.6523,123.5369" fill="#FEFFDD" style="stroke:#181818;stroke-width:0.5;"/><text fill="#000000" font-family="sans-serif" font-size="13" lengthAdjust="spacing" textLength="262.6523" x="12" y="142.4339">This contains all the data stored in the app,</text><text fill="#000000" font-family="sans-serif" font-size="13" lengthAdjust="spacing" textLength="251.6672" x="12" y="160.1399">so that all parts of the app can access the</text><text fill="#000000" font-family="sans-serif" font-size="13" lengthAdjust="spacing" textLength="119.5091" x="12" y="177.846">data that they need</text><path d="M6,196.655 L6,259.773 A0,0 0 0 0 6,259.773 L316.5493,259.773 A0,0 0 0 0 316.5493,259.773 L316.5493,232.214 L355.55,245.2505 L316.5493,224.214 L316.5493,206.655 L306.5493,196.655 L6,196.655 A0,0 0 0 0 6,196.655" fill="#FEFFDD" style="stroke:#181818;stroke-width:0.5;"/><path d="M306.5493,196.655 L306.5493,206.655 L316.5493,206.655 L306.5493,196.655" fill="#FEFFDD" style="stroke:#181818;stroke-width:0.5;"/><text fill="#000000" font-family="sans-serif" font-size="13" lengthAdjust="spacing" textLength="246.5192" x="12" y="215.552">Start game will initialize the cryptogram,</text><text fill="#000000" font-family="sans-serif" font-size="13" lengthAdjust="spacing" textLength="108.6021" x="12" y="233.258">display the puzzle</text><text fill="#000000" font-family="sans-serif" font-size="13" lengthAdjust="spacing" textLength="289.5493" x="12" y="250.964">and frequencies, and will run getInput in a loop</text><path d="M553.9,177.7969 L553.9,187.6499 L499.4815,264.3184 L553.9,195.6499 L553.9,205.5029 A0,0 0 0 0 553.9,205.5029 L656.6571,205.5029 A0,0 0 0 0 656.6571,205.5029 L656.6571,187.7969 L646.6571,177.7969 L553.9,177.7969 A0,0 0 0 0 553.9,177.7969" fill="#FEFFDD" style="stroke:#181818;stroke-width:0.5;"/><path d="M646.6571,177.7969 L646.6571,187.7969 L656.6571,187.7969 L646.6571,177.7969" fill="#FEFFDD" style="stroke:#181818;stroke-width:0.5;"/><text fill="#4169E1" font-family="sans-serif" font-size="13" lengthAdjust="spacing" textLength="81.7571" x="559.9" y="196.6939">User Story 13</text><!--link App to Game--><g class="link" data-entity-1="App" data-entity-2="Game" data-source-line="34" data-uid="lnk24" id="link_App_Game"><path codeLine="34" d="M519.43,96.6169 C532.8,86.0669 547.35,76.9269 562.77,70.6769 C597.79,56.4869 612,58.5469 647.77,70.6769 C680.99,81.9269 712.77,102.8869 739.38,124.5169" fill="none" id="App-Game" style="stroke:#181818;stroke-width:1;"/><polygon fill="#000000" points="572.7303,57.8591,564.1269,53.8053,563.3872,59.6365,572.7303,57.8591" style="stroke:#000000;stroke-width:1;"/><text fill="#000000" font-family="sans-serif" font-size="13" lengthAdjust="spacing" textLength="70.0051" x="576.77" y="62.2739">Runs Game</text></g><!--link App to AppData--><g class="link" data-entity-1="App" data-entity-2="AppData" data-source-line="35" data-uid="lnk25" id="link_App_AppData"><path codeLine="35" d="M498.62,297.2269 C514.22,321.7569 531.35,348.6869 548.37,375.4369" fill="none" id="App-AppData" style="stroke:#181818;stroke-width:1;"/><polygon fill="#000000" points="532.8436,340.9987,530.4687,331.7895,525.5092,334.9442,532.8436,340.9987" style="stroke:#000000;stroke-width:1;"/><text fill="#000000" font-family="sans-serif" font-size="13" lengthAdjust="spacing" textLength="80.3271" x="539.16" y="341.8239">Contains one</text></g><!--link Game to AppData--><g class="link" data-entity-1="Game" data-entity-2="AppData" data-source-line="36" data-uid="lnk26" id="link_Game_AppData"><path codeLine="36" d="M779.73,268.5669 C765.41,299.7669 747.93,337.8469 730.63,375.5569" fill="none" id="Game-AppData" style="stroke:#181818;stroke-width:1;"/><polygon fill="#000000" points="754.9845,341.3242,761.4283,334.3293,756.0861,331.8777,754.9845,341.3242" style="stroke:#000000;stroke-width:1;"/><text fill="#000000" font-family="sans-serif" font-size="13" lengthAdjust="spacing" textLength="80.3271" x="766.07" y="341.8239">Contains one</text></g><!--reverse link AppData to Cryptogram--><g class="link" data-entity-1="AppData" data-entity-2="Cryptogram" data-source-line="38" data-uid="lnk27" id="link_AppData_Cryptogram"><path codeLine="38" d="M721.8478,721.5223 C734.8278,755.6323 744.26,780.4369 757.36,814.8769" fill="none" id="AppData-backto-Cryptogram" style="stroke:#181818;stroke-width:1;"/><polygon fill="#181818" points="717.58,710.3069,715.9754,717.3372,721.8478,721.5223,723.4524,714.492,717.58,710.3069" style="stroke:#181818;stroke-width:1;"/><polygon fill="#000000" points="740.9577,754.4632,740.4887,744.9642,734.9949,747.0541,740.9577,754.4632" style="stroke:#000000;stroke-width:1;"/><text fill="#000000" font-family="sans-serif" font-size="13" lengthAdjust="spacing" textLength="89.2321" x="748.18" y="754.8339">contains many</text><text fill="#000000" font-family="sans-serif" font-size="13" lengthAdjust="spacing" textLength="7.436" x="713.1124" y="731.6384">1</text><text fill="#000000" font-family="sans-serif" font-size="13" lengthAdjust="spacing" textLength="7.163" x="733.1654" y="803.3907">*</text></g><!--reverse link AppData to User--><g class="link" data-entity-1="AppData" data-entity-2="User" data-source-line="39" data-uid="lnk28" id="link_AppData_User"><path codeLine="39" d="M560.7938,720.9169 C541.0638,758.2569 525.75,787.2669 506.03,824.5969" fill="none" id="AppData-backto-User" style="stroke:#181818;stroke-width:1;"/><polygon fill="#181818" points="566.4,710.3069,560.0603,713.7432,560.7938,720.9169,567.1336,717.4806,566.4,710.3069" style="stroke:#181818;stroke-width:1;"/><polygon fill="#000000" points="553.0647,754.2111,559.8879,747.5858,554.6906,744.8405,553.0647,754.2111" style="stroke:#000000;stroke-width:1;"/><text fill="#000000" font-family="sans-serif" font-size="13" lengthAdjust="spacing" textLength="89.2321" x="564.4" y="754.8339">contains many</text><text fill="#000000" font-family="sans-serif" font-size="13" lengthAdjust="spacing" textLength="7.436" x="542.2913" y="731.6384">1</text><text fill="#000000" font-family="sans-serif" font-size="13" lengthAdjust="spacing" textLength="7.163" x="503.1149" y="813.0035">*</text></g><!--link User to Cryptogram--><g class="link" data-entity-1="User" data-entity-2="Cryptogram" data-source-line="40" data-uid="lnk29" id="link_User_Cryptogram"><path codeLine="40" d="M545.62,991.7369 C576.67,991.7369 610.47,991.7369 643.48,991.7369" fill="none" id="User-Cryptogram" style="stroke:#181818;stroke-width:1;"/><polygon fill="#000000" points="572.62,979.5899,563.5749,976.651,563.5749,982.5289,572.62,979.5899" style="stroke:#000000;stroke-width:1;"/><text fill="#000000" font-family="sans-serif" font-size="13" lengthAdjust="spacing" textLength="49.764" x="576.62" y="984.6339">Has one</text></g><!--link Cryptogram to CryptoType--><g class="link" data-entity-1="Cryptogram" data-entity-2="CryptoType" data-source-line="41" data-uid="lnk30" id="link_Cryptogram_CryptoType"><path codeLine="41" d="M824.27,1168.7469 C824.27,1200.9669 824.27,1225.7369 824.27,1249.1269" fill="none" id="Cryptogram-to-CryptoType" style="stroke:#181818;stroke-width:1;"/><polygon fill="#181818" points="824.27,1255.1269,828.27,1246.1269,824.27,1250.1269,820.27,1246.1269,824.27,1255.1269" style="stroke:#181818;stroke-width:1;"/></g><!--SRC=[VLDDRzim3BthLx2vjCtgVcJO1WH5W2q5kW8x34jt6dPWRSRH88kQ92DmXlttKd8-76HO3aRu-4WzFL9HHqCmNqnkFy3STovoxR61hvv_KHcXWBd14E11OyOBUFJSEfYyWydjvBsAx20ol72Ct42blHHfjkhyp7ci6mI37RSHGaCHBIfr3a-sD6r545SK21pw682NAPJwV8ewqrlEzKsD3LsxjZ53iDmBFKcrWVm9YCvL6B77LPblzD6vFmhaLu2a7oGzJLZw0p_kVkRK6nYF1Rku78-tiM-j9NznkGqDrzhkewHrGJ5gM- -n4EM2Zv8u82jUVo6ioBym-cg0jx7YTMhtLodBaS3GCYPlHCDqkbMPsSyh7Q1a6r7R06XCRr_I7Y9xga3R34dHLQu8B376p3toN1XGeWKiIn9R1Chyt2jN2DA19QeKsGgIhd-fszypLozIbFs0jPOJjTLHez6RF7OupAyNL-dWP55ophMRZUcxe9otzFIx9Ljg2bSPoFra351JVB9ETakkAdl6x0O2HLFQLH4mXHbyQyMbB2xZnMxGAJVVkSYMLEByBwzs6pAw6y5OYF9DIaU3jvEAzgDfq7Q3efwR2ySZ-2wxUifEQ7ftHmq_OozWy4IBOhObFNTkDnElwzLWACUhbaszBzcmdthkq7moBStoUGlPcWxktjxVvFJiOEKh]--></g></svg>